<?xml version="1.0"?>
<svg width="953" height="1280" xmlns="http://www.w3.org/2000/svg" xmlns:svg="http://www.w3.org/2000/svg" preserveAspectRatio="xMidYMid meet">
 <metadata>Created by potrace 1.15, written by Peter Selinger 2001-2017</metadata>
 <g class="layer">
  <title>Layer 1</title>
  <g fill="#000000" id="svg_1" transform="translate(0 1280) scale(0.1 -0.1)">
   <path d="m6111,12786c-47,-26 -66,-103 -40,-160c12,-25 63,-56 94,-56c48,0 115,67 115,116c0,41 -22,85 -51,99c-35,18 -86,19 -118,1z" fill="#b4cd37" id="svg_2"/>
   <path d="m3664,12494c-11,-45 29,-210 48,-198c22,14 -12,224 -36,224c-3,0 -9,-11 -12,-26z" fill="#b4cd37" id="svg_3"/>
   <path d="m6123,12420c-41,-24 -55,-52 -51,-98c2,-25 8,-38 20,-40c25,-5 138,97 138,124c0,38 -56,46 -107,14z" fill="#b4cd37" id="svg_4"/>
   <path d="m7021,12354c-44,-56 -16,-144 45,-144c22,0 25,3 20,23c-3,12 -6,50 -6,85c0,55 -2,62 -19,62c-11,0 -29,-12 -40,-26z" fill="#b4cd37" id="svg_5"/>
   <path d="m6774,12336c-38,-17 -44,-31 -44,-112c0,-56 4,-68 25,-89c29,-30 73,-32 131,-6c113,52 112,166 -3,205c-56,19 -69,19 -109,2z" fill="#b4cd37" id="svg_6"/>
   <path d="m5423,12298c-58,-42 -81,-109 -48,-141c29,-29 80,-39 118,-24c60,26 85,128 41,171c-22,23 -74,20 -111,-6z" fill="#b4cd37" id="svg_7"/>
   <path d="m3974,12235c-40,-90 -26,-236 36,-371c31,-68 49,-78 61,-33c18,62 8,138 -35,290l-44,154l-18,-40z" fill="#b4cd37" id="svg_8"/>
   <path d="m4197,12192c-25,-103 -26,-124 -15,-169c12,-48 22,-54 32,-20c35,121 37,138 26,192c-6,30 -15,57 -19,59c-4,3 -15,-25 -24,-62z" fill="#b4cd37" id="svg_9"/>
   <path d="m5923,12079c-27,-14 -63,-96 -63,-142c0,-42 31,-84 76,-103c49,-20 69,-17 107,16c65,57 71,155 12,210c-27,26 -98,36 -132,19z" fill="#b4cd37" id="svg_10"/>
   <path d="m6458,12053c-32,-8 -33,-44 -3,-70c39,-34 60,-27 60,21c0,40 -19,57 -57,49z" fill="#b4cd37" id="svg_11"/>
   <path d="m6806,11984c-31,-30 -14,-84 26,-84c36,0 52,72 19,90c-25,13 -27,13 -45,-6z" fill="#b4cd37" id="svg_12"/>
   <path d="m4950,11655c-19,-23 -8,-50 23,-53c23,-3 27,0 27,20c0,23 -16,48 -31,48c-4,0 -12,-7 -19,-15z" fill="#b4cd37" id="svg_13"/>
   <path d="m4033,11610c-50,-20 -64,-64 -88,-275c-24,-218 -45,-274 -99,-275c-11,0 -29,9 -41,20l-20,19l3,-74c5,-98 -2,-127 -31,-123c-14,2 -30,18 -44,47c-36,72 -51,83 -98,76c-93,-16 -165,-70 -201,-153c-9,-20 -29,-112 -45,-204c-28,-162 -56,-247 -91,-275c-7,-6 -41,-13 -76,-15l-62,-4l6,156c5,112 3,166 -5,193c-7,20 -16,35 -20,32c-5,-2 -16,-33 -27,-67c-28,-97 -23,-238 15,-433c52,-263 57,-412 18,-520c-34,-91 -77,-172 -107,-200c-52,-49 -90,-134 -90,-203c0,-72 21,-155 59,-230c27,-53 242,-344 275,-371c7,-6 45,-17 85,-24c40,-8 77,-19 82,-24c6,-6 -2,-27 -25,-59c-81,-113 -179,-278 -208,-346c-39,-91 -48,-186 -24,-224c22,-33 69,-52 134,-55c61,-3 75,7 109,78c28,61 49,75 69,48c36,-49 6,-130 -76,-210c-39,-38 -90,-117 -90,-139c0,-1 26,1 57,4c39,5 60,12 70,26c7,10 33,46 57,79c24,33 51,76 61,95c10,19 35,54 56,77c21,22 47,59 58,82c24,46 164,171 227,201c71,35 111,25 142,-36c7,-12 25,-72 42,-133c34,-125 54,-168 103,-223c30,-33 40,-38 80,-38c66,0 93,-14 117,-59c31,-61 27,-81 -15,-81l-35,0l0,-47c0,-56 26,-118 64,-152c18,-17 41,-26 78,-29c84,-6 117,7 155,62c54,78 42,128 -48,206c-51,44 -48,59 15,88c62,29 153,30 189,2c36,-28 43,-57 21,-81c-16,-17 -16,-22 -4,-29c8,-6 29,-10 47,-10c21,0 46,-12 75,-34c24,-19 80,-60 124,-91c94,-65 144,-75 176,-35c39,48 4,120 -58,120c-62,0 -94,34 -113,122c-27,118 42,182 314,298c107,46 181,98 197,140c5,14 14,48 19,75c5,28 16,66 25,86c14,32 14,59 6,225c-6,104 -13,199 -17,211c-6,17 5,34 54,87c51,54 61,71 61,100c0,29 5,38 30,51c37,19 38,37 3,63l-26,19l58,27c31,14 61,26 64,26c15,0 60,56 75,92c31,72 16,133 -86,353c-52,113 -98,233 -98,258c0,4 15,-3 33,-16c76,-57 146,-75 221,-56c67,17 78,39 80,152c1,128 -17,175 -84,211c-40,22 -52,34 -61,66c-17,56 -6,86 40,110c72,36 87,80 51,150c-37,73 -97,91 -142,43c-37,-40 -49,-67 -58,-136c-10,-65 3,-102 57,-175l25,-33l-80,-87c-43,-48 -87,-89 -97,-90c-26,-6 -39,14 -37,53c4,48 -15,112 -34,119c-8,3 -41,-8 -73,-26c-31,-17 -64,-29 -72,-26c-8,3 -21,26 -28,49l-13,44l51,46c28,25 51,53 51,62c0,27 -49,33 -89,11c-46,-25 -71,-62 -82,-119c-5,-27 -11,-50 -13,-52c-14,-14 -52,27 -78,83c-24,51 -30,78 -30,127l0,62l-44,0c-49,0 -50,-1 -29,-52c12,-29 13,-43 4,-71c-11,-33 -13,-34 -52,-29c-51,7 -76,29 -57,52c8,9 26,23 42,31c30,16 37,34 13,34c-26,0 -77,-30 -122,-71c-25,-23 -56,-40 -80,-45c-45,-8 -70,-20 -98,-45c-11,-10 -50,-25 -85,-32c-36,-8 -79,-21 -96,-30c-28,-14 -34,-15 -44,-2c-6,8 -9,23 -5,34c7,23 -19,41 -57,41c-67,0 -222,125 -247,199c-15,47 -14,107 4,140c15,31 76,64 135,76c61,13 71,22 59,53c-17,45 -39,62 -81,62c-47,0 -78,-15 -142,-68c-67,-55 -86,-88 -86,-144c0,-51 -16,-68 -63,-68c-37,0 -56,30 -66,106c-6,50 -22,95 -56,164c-44,89 -46,99 -42,158c4,54 17,90 85,230c87,181 102,220 102,264c0,44 -16,66 -58,78c-43,12 -50,12 -79,0zm602,-1534c20,-37 63,-61 130,-72c59,-10 73,-20 85,-62c11,-40 14,-102 4,-102c-10,0 -48,22 -100,57c-44,29 -54,33 -78,23c-30,-11 -115,-14 -140,-4c-20,8 -20,44 -1,91c17,41 62,103 74,103c4,0 16,-15 26,-34zm-1036,-1602c32,-23 51,-74 51,-138c0,-81 -12,-106 -52,-106c-19,0 -41,9 -55,22c-22,21 -23,21 -43,3c-24,-21 -22,-23 -48,37c-11,25 -39,67 -62,91l-41,45l53,16c29,9 67,23 83,30c41,20 86,19 114,0z" fill="#b4cd37" id="svg_14"/>
   <path d="m3010,11528c0,-8 7,-36 16,-61c22,-64 14,-81 -32,-74l-35,6l-36,-74c-44,-93 -40,-119 22,-158c63,-40 113,-35 138,13c26,51 18,170 -20,274c-25,72 -53,110 -53,74z" fill="#b4cd37" id="svg_15"/>
   <path d="m6614,11435c-13,-14 -38,-25 -70,-29c-69,-11 -114,-47 -114,-92c0,-47 23,-88 63,-113c65,-40 132,-21 157,43c14,38 23,141 16,180c-8,41 -22,44 -52,11z" fill="#b4cd37" id="svg_16"/>
   <path d="m5620,11404c-45,-38 -39,-75 14,-89c33,-8 40,-6 52,10c17,23 18,77 2,93c-18,18 -33,15 -68,-14z" fill="#b4cd37" id="svg_17"/>
   <path d="m4570,11323c-50,-79 -51,-113 -4,-113c30,0 54,48 54,109c0,58 -16,59 -50,4z" fill="#b4cd37" id="svg_18"/>
   <path d="m3357,11318c9,-35 21,-46 48,-40c34,6 31,15 -14,40l-39,22l5,-22z" fill="#b4cd37" id="svg_19"/>
   <path d="m6005,11177c-30,-30 -35,-41 -35,-83c0,-98 72,-184 153,-184c55,0 97,45 126,132c33,99 29,109 -52,136c-38,12 -88,25 -112,29c-41,5 -47,3 -80,-30z" fill="#b4cd37" id="svg_20"/>
   <path d="m5386,11048c-20,-28 -21,-87 -2,-94c8,-3 31,2 50,11c47,23 59,61 26,87c-30,24 -56,23 -74,-4z" fill="#b4cd37" id="svg_21"/>
   <path d="m5640,10960c-27,-27 -25,-58 4,-71c31,-14 63,2 72,36c12,50 -38,73 -76,35z" fill="#b4cd37" id="svg_22"/>
   <path d="m5225,10826c-9,-14 -25,-48 -36,-76l-20,-52l30,21c39,28 80,131 51,131c-5,0 -17,-11 -25,-24z" fill="#b4cd37" id="svg_23"/>
   <path d="m5846,10774c-24,-23 -16,-48 17,-52c23,-3 27,0 27,21c0,36 -23,52 -44,31z" fill="#b4cd37" id="svg_24"/>
   <path d="m5049,10713c-18,-48 -22,-118 -9,-143l13,-24l18,23c13,16 19,39 19,75c0,91 -20,124 -41,69z" fill="#b4cd37" id="svg_25"/>
   <path d="m8329,10664c-10,-12 -14,-42 -14,-98l0,-81l72,-3c62,-2 75,0 93,18c11,11 20,29 20,40c0,77 -131,172 -171,124z" fill="#b4cd37" id="svg_26"/>
   <path d="m4721,10652c-12,-22 3,-42 31,-42c20,0 23,12 8,41c-13,24 -26,24 -39,1z" fill="#b4cd37" id="svg_27"/>
   <path d="m6205,10216c-22,-29 -24,-37 -15,-62c6,-16 17,-32 23,-36c41,-26 107,18 107,72c0,26 -6,33 -35,46c-47,19 -50,19 -80,-20z" fill="#b4cd37" id="svg_28"/>
   <path d="m7498,10229c-18,-10 -24,-45 -10,-65c12,-18 52,-36 68,-30c23,9 16,50 -13,78c-22,21 -32,25 -45,17z" fill="#b4cd37" id="svg_29"/>
   <path d="m2502,10208c17,-26 58,-55 58,-41c0,15 -47,63 -61,63c-8,0 -7,-7 3,-22z" fill="#b4cd37" id="svg_30"/>
   <path d="m6522,10164c-56,-39 10,-174 86,-174c25,0 52,64 52,125c0,42 -1,44 -37,54c-52,15 -75,14 -101,-5z" fill="#b4cd37" id="svg_31"/>
   <path d="m8684,10030c-49,-20 -37,-56 34,-101c77,-49 132,-33 132,37c0,63 -13,74 -83,73c-34,0 -72,-4 -83,-9z" fill="#b4cd37" id="svg_32"/>
   <path d="m6507,9916c-7,-17 11,-36 35,-36c19,0 22,8 12,34c-8,20 -40,21 -47,2z" fill="#b4cd37" id="svg_33"/>
   <path d="m8455,9810c-9,-10 -20,-39 -22,-63c-5,-38 -2,-47 18,-61c55,-38 114,-11 114,52c0,73 -68,118 -110,72z" fill="#b4cd37" id="svg_34"/>
   <path d="m2709,9711c-43,-43 -49,-71 -19,-101c44,-44 117,-33 151,24c38,62 14,116 -53,116c-34,0 -47,-6 -79,-39z" fill="#b4cd37" id="svg_35"/>
   <path d="m2102,9588c-27,-27 -7,-78 29,-78c11,0 20,11 24,30c10,47 -24,77 -53,48z" fill="#b4cd37" id="svg_36"/>
   <path d="m6074,9401c-35,-21 -59,-76 -48,-107c4,-10 16,-29 28,-42c18,-21 21,-36 21,-127c0,-117 11,-140 72,-151c97,-18 243,82 243,166c0,40 -26,68 -99,104c-78,40 -85,47 -102,104c-7,23 -17,46 -23,51c-25,21 -61,21 -92,2z" fill="#b4cd37" id="svg_37"/>
   <path d="m7301,9264c-21,-15 -23,-23 -19,-73c2,-33 14,-78 28,-106c35,-68 79,-90 184,-90c95,0 107,10 87,76c-16,52 -83,120 -172,172c-72,42 -76,43 -108,21z" fill="#b4cd37" id="svg_38"/>
   <path d="m2454,9188c-56,-58 -64,-77 -64,-145c0,-73 22,-112 85,-148c137,-81 284,23 260,184c-8,55 -24,88 -60,121c-23,21 -38,25 -103,28l-77,4l-41,-44z" fill="#b4cd37" id="svg_39"/>
   <path d="m7976,8759c-65,-65 -76,-72 -126,-80c-30,-5 -59,-9 -65,-9c-5,-1 2,-7 17,-16c37,-20 43,-53 29,-156c-17,-120 -12,-126 82,-82c50,22 67,25 154,22c152,-5 189,22 200,141c6,67 -7,122 -43,177c-35,53 -71,74 -130,74c-46,0 -50,-3 -118,-71z" fill="#b4cd37" id="svg_40"/>
   <path d="m6735,8801c-87,-22 -156,-81 -175,-149c-24,-88 -6,-120 91,-167c45,-21 71,-42 90,-69c50,-74 123,-85 173,-25c32,37 32,56 4,111c-19,36 -22,56 -20,126c2,89 -13,143 -45,160c-28,15 -85,21 -118,13z" fill="#b4cd37" id="svg_41"/>
   <path d="m2503,8550c-53,-22 -71,-123 -28,-165c35,-36 96,-35 124,1c34,43 28,99 -13,140c-35,35 -46,39 -83,24z" fill="#b4cd37" id="svg_42"/>
   <path d="m652,8428c-16,-16 -15,-50 1,-72c27,-36 81,23 63,69c-7,18 -47,20 -64,3z" fill="#b4cd37" id="svg_43"/>
   <path d="m6234,8393c-55,-10 -75,-82 -34,-123c41,-41 121,-11 135,51c11,46 -41,83 -101,72z" fill="#b4cd37" id="svg_44"/>
   <path d="m6975,8368c-33,-17 -45,-40 -45,-81c0,-86 113,-142 169,-83c45,47 36,141 -15,165c-31,14 -83,14 -109,-1z" fill="#b4cd37" id="svg_45"/>
   <path d="m8380,8347c-66,-24 -110,-44 -110,-52c0,-2 9,-19 19,-37c11,-18 27,-65 36,-103c45,-199 159,-217 246,-39c25,49 32,79 33,124c1,66 -16,93 -71,116c-45,19 -78,17 -153,-9z" fill="#b4cd37" id="svg_46"/>
   <path d="m2377,8209c-39,-23 -41,-86 -3,-111c20,-14 63,-8 79,10c20,22 21,45 6,75c-20,38 -47,46 -82,26z" fill="#b4cd37" id="svg_47"/>
   <path d="m7323,8116c-37,-27 -60,-132 -43,-195c16,-60 53,-98 113,-116c182,-54 252,40 144,196c-70,102 -162,151 -214,115z" fill="#b4cd37" id="svg_48"/>
   <path d="m2965,8059c-19,-17 -35,-37 -35,-43c0,-18 31,-44 69,-57c28,-10 35,-9 52,7c30,31 35,78 10,103c-29,29 -54,26 -96,-10z" fill="#b4cd37" id="svg_49"/>
   <path d="m1025,7994c-30,-31 0,-86 39,-71c28,11 15,87 -15,87c-4,0 -15,-7 -24,-16z" fill="#b4cd37" id="svg_50"/>
   <path d="m3645,7845c-23,-8 -60,-36 -87,-65c-37,-39 -55,-50 -78,-50c-27,0 -30,-3 -30,-32c0,-18 -9,-78 -20,-133c-11,-55 -23,-152 -27,-216l-6,-117l-51,-23c-76,-36 -148,-114 -195,-211c-60,-126 -75,-200 -75,-358c0,-166 14,-234 60,-294c83,-109 321,-162 510,-115c54,14 68,30 144,167c134,241 153,378 68,486c-19,23 -32,52 -32,70c-2,46 -13,56 -61,56c-41,0 -74,16 -169,83c-26,18 -12,37 25,37c17,0 53,10 80,22c41,17 62,36 111,100c52,69 104,118 157,148c10,5 16,30 18,71c4,76 27,178 50,227c10,21 29,40 50,48c33,14 43,37 22,49c-6,4 -21,-3 -34,-15l-23,-21l-87,36c-151,62 -244,77 -320,50zm-174,-725c24,-16 50,-30 57,-30c6,0 12,-4 12,-9c0,-10 -34,-21 -70,-21c-35,0 -170,33 -170,43c0,15 66,47 96,47c18,0 50,-13 75,-30z" fill="#b4cd37" id="svg_51"/>
   <path d="m8520,7808c-41,-22 -70,-75 -70,-130c0,-41 5,-54 29,-79c24,-24 38,-29 75,-29c66,0 107,38 113,106c5,51 -10,97 -39,121c-22,19 -81,24 -108,11z" fill="#b4cd37" id="svg_52"/>
   <path d="m7755,7788c-96,-53 -148,-185 -92,-235c85,-77 220,-44 248,60c31,116 -66,225 -156,175z" fill="#b4cd37" id="svg_53"/>
   <path d="m6690,7495l-25,-14l30,-1c39,0 75,10 75,21c0,14 -52,10 -80,-6z" fill="#b4cd37" id="svg_54"/>
   <path d="m4610,7442c0,-38 26,-72 55,-72c18,0 26,8 35,35c17,52 8,65 -45,65c-43,0 -45,-1 -45,-28z" fill="#b4cd37" id="svg_55"/>
   <path d="m27,7410c-51,-40 -29,-92 40,-94c32,-1 39,3 51,28c33,67 -31,113 -91,66z" fill="#b4cd37" id="svg_56"/>
   <path d="m4926,7401c-3,-4 1,-17 9,-27c13,-18 15,-18 31,-2c9,9 13,21 10,27c-8,13 -43,15 -50,2z" fill="#b4cd37" id="svg_57"/>
   <path d="m315,7260c-9,-15 4,-30 26,-30c12,0 19,7 19,20c0,21 -33,29 -45,10z" fill="#b4cd37" id="svg_58"/>
   <path d="m4811,7143c-70,-34 -157,-122 -200,-202c-39,-74 -51,-169 -32,-247c17,-67 75,-133 150,-169c34,-16 61,-31 61,-34c0,-3 -38,-40 -84,-81c-47,-41 -84,-76 -83,-77c1,-1 45,5 97,13c68,11 130,13 218,9c121,-6 125,-6 179,21c66,34 92,66 167,206c31,59 79,131 106,161c28,30 50,57 50,60c0,3 -29,-7 -65,-24c-84,-38 -122,-38 -136,-1c-13,34 -4,130 22,223c22,78 22,82 11,75c-5,-3 -28,-9 -51,-15c-41,-9 -44,-8 -107,41c-75,57 -105,68 -189,68c-44,-1 -75,-8 -114,-27z" fill="#b4cd37" id="svg_59"/>
   <path d="m8433,7136c-91,-18 -96,-24 -91,-125c6,-133 53,-202 128,-186c40,9 106,69 140,129c55,95 32,165 -61,185c-27,6 -51,11 -52,10c-1,-1 -30,-6 -64,-13z" fill="#b4cd37" id="svg_60"/>
   <path d="m5634,6941c-73,-34 -91,-54 -42,-45c48,9 91,31 106,54c16,26 8,25 -64,-9z" fill="#b4cd37" id="svg_61"/>
   <path d="m1485,6780c-35,-14 -47,-36 -40,-72c15,-69 74,-99 115,-58c54,54 -6,158 -75,130z" fill="#b4cd37" id="svg_62"/>
   <path d="m2450,6731c0,-20 13,-41 25,-41c15,0 28,27 19,41c-7,12 -44,12 -44,0z" fill="#b4cd37" id="svg_63"/>
   <path d="m8973,6555c-45,-19 -73,-51 -73,-83c0,-45 92,-128 182,-163c151,-60 267,-61 356,-5c22,14 52,28 66,32c22,5 26,12 26,44c0,33 -3,38 -27,43c-28,5 -141,47 -306,112c-96,38 -168,45 -224,20z" fill="#b4cd37" id="svg_64"/>
   <path d="m733,6449c-94,-46 -123,-199 -58,-305c40,-63 101,-96 183,-97c81,0 114,21 146,96c42,95 30,184 -32,251c-71,74 -159,95 -239,55z" fill="#b4cd37" id="svg_65"/>
   <path d="m1965,6441c-132,-58 -72,-281 80,-299c43,-4 47,-2 91,42l47,46l-7,57c-8,66 -31,119 -60,138c-27,17 -125,27 -151,16z" fill="#b4cd37" id="svg_66"/>
   <path d="m4082,6368c-27,-27 -6,-68 35,-68c31,0 52,42 33,65c-15,18 -51,20 -68,3z" fill="#b4cd37" id="svg_67"/>
   <path d="m2622,6363c-21,-8 -42,-59 -42,-101c0,-49 29,-88 76,-101c79,-22 128,38 110,134c-11,55 -87,91 -144,68z" fill="#b4cd37" id="svg_68"/>
   <path d="m3654,6173c18,-77 17,-101 -3,-167c-25,-82 -26,-103 -5,-155c31,-78 114,-97 209,-48c98,49 133,111 114,198c-10,45 -17,53 -74,94c-56,40 -69,45 -117,45c-49,0 -57,3 -76,30c-29,39 -57,41 -48,3z" fill="#b4cd37" id="svg_69"/>
   <path d="m1625,6047c-53,-30 -73,-69 -51,-102c25,-38 67,-16 97,50c35,77 23,91 -46,52z" fill="#b4cd37" id="svg_70"/>
   <path d="m2715,5987c-56,-32 -100,-119 -99,-196c3,-135 85,-221 213,-221c33,0 72,5 88,11c33,12 90,64 108,99c50,99 8,237 -92,300c-62,39 -156,42 -218,7z" fill="#b4cd37" id="svg_71"/>
   <path d="m8865,5998c-42,-23 -75,-62 -75,-89c0,-35 18,-49 77,-55c59,-7 73,5 80,70c9,73 -26,105 -82,74z" fill="#b4cd37" id="svg_72"/>
   <path d="m9087,5908c-15,-5 -30,-20 -33,-32c-8,-33 12,-101 39,-132c19,-22 28,-25 54,-20c48,11 113,62 113,89c0,61 -105,119 -173,95z" fill="#b4cd37" id="svg_73"/>
   <path d="m4323,5874c-18,-9 -51,-36 -73,-60c-67,-73 -52,-142 39,-173c71,-23 128,-4 155,53c32,67 11,167 -39,186c-35,13 -44,12 -82,-6z" fill="#b4cd37" id="svg_74"/>
   <path d="m4051,5824c-21,-27 -28,-64 -13,-64c11,0 47,78 40,86c-3,3 -15,-7 -27,-22z" fill="#b4cd37" id="svg_75"/>
   <path d="m1320,5790c-6,-11 -10,-46 -8,-78l3,-57l39,-3c82,-7 119,23 96,79c-27,65 -107,101 -130,59z" fill="#b4cd37" id="svg_76"/>
   <path d="m3678,5565c-29,-16 -68,-88 -68,-127c0,-36 49,-70 109,-76c39,-3 49,0 69,21c25,27 39,90 28,132c-7,28 -59,65 -91,65c-11,-1 -32,-7 -47,-15z" fill="#b4cd37" id="svg_77"/>
   <path d="m2410,5450c-11,-11 -20,-24 -20,-30c0,-15 39,-32 60,-25c22,7 25,26 10,56c-13,24 -25,24 -50,-1z" fill="#b4cd37" id="svg_78"/>
   <path d="m8655,5442c-8,-39 1,-58 21,-41c18,14 18,30 0,54c-13,18 -14,17 -21,-13z" fill="#b4cd37" id="svg_79"/>
   <path d="m1823,5253c-8,-6 -9,-22 -3,-51c10,-57 22,-69 57,-56c31,11 63,78 46,95c-14,14 -85,22 -100,12z" fill="#b4cd37" id="svg_80"/>
   <path d="m3017,5172c-51,-53 -48,-121 7,-158c48,-31 116,8 116,66c0,52 -50,130 -82,130c-2,0 -21,-17 -41,-38z" fill="#b4cd37" id="svg_81"/>
   <path d="m3493,5180c-34,-14 -43,-41 -50,-154c-5,-90 -4,-109 11,-132c15,-22 23,-25 52,-21c87,14 164,108 164,200c0,58 -21,102 -52,111c-33,8 -99,6 -125,-4z" fill="#b4cd37" id="svg_82"/>
   <path d="m2196,4994c-17,-43 -2,-53 51,-33l28,10l-25,19c-31,24 -46,25 -54,4z" fill="#b4cd37" id="svg_83"/>
   <path d="m1017,4826c-7,-18 1,-26 25,-26c11,0 18,7 18,20c0,23 -35,28 -43,6z" fill="#b4cd37" id="svg_84"/>
   <path d="m3644,4779c-26,-9 -54,-46 -54,-71c0,-34 23,-67 58,-84c32,-15 39,-15 61,-3c79,45 19,190 -65,158z" fill="#b4cd37" id="svg_85"/>
   <path d="m3158,4289c-25,-14 -23,-56 3,-70c28,-15 41,0 37,41c-3,37 -14,45 -40,29z" fill="#b4cd37" id="svg_86"/>
   <path d="m2870,4170c-63,-30 -98,-65 -131,-135c-35,-73 -37,-122 -6,-184c67,-138 238,-225 350,-178c83,35 134,109 145,211c7,58 9,61 32,58c14,-1 51,-4 83,-5c51,-2 61,1 78,22c28,35 24,68 -15,107c-40,40 -60,42 -127,13l-49,-21l-41,37c-92,83 -231,116 -319,75z" fill="#b4cd37" id="svg_87"/>
   <path d="m1792,3608c2,-25 8,-33 23,-33c16,0 20,7 20,30c0,24 -5,31 -23,33c-21,3 -23,0 -20,-30z" fill="#b4cd37" id="svg_88"/>
   <path d="m2224,3101c-36,-17 -45,-27 -64,-78c-32,-84 -38,-207 -14,-285c22,-73 59,-114 138,-153c51,-25 64,-27 144,-23c218,11 298,110 229,279c-32,76 -67,119 -154,189c-107,87 -195,109 -279,71z" fill="#b4cd37" id="svg_89"/>
   <path d="m2690,2522c-33,-34 -54,-102 -45,-148c5,-30 45,-74 67,-74c13,0 29,48 37,118c14,118 -7,156 -59,104z" fill="#b4cd37" id="svg_90"/>
   <path d="m2464,2265c-12,-47 35,-75 56,-34c9,16 8,25 -6,40c-24,26 -42,24 -50,-6z" fill="#b4cd37" id="svg_91"/>
   <path d="m2491,1846c-18,-21 -10,-46 19,-68c45,-33 82,0 57,50c-14,31 -57,41 -76,18z" fill="#b4cd37" id="svg_92"/>
   <path d="m2530,1646c-25,-28 -30,-73 -9,-87c8,-5 30,-8 49,-7c33,3 35,5 38,44c2,28 -2,47 -13,58c-23,22 -38,20 -65,-8z" fill="#b4cd37" id="svg_93"/>
   <path d="m2466,985c-105,-43 -216,-177 -216,-261c0,-18 12,-60 26,-94c24,-54 35,-66 101,-110c63,-42 82,-50 121,-50c26,0 84,-9 130,-21c67,-18 87,-20 108,-10c23,10 25,15 18,56c-5,40 -3,51 22,88c25,37 29,53 32,133c6,150 -25,220 -117,267c-71,35 -143,36 -225,2z" fill="#b4cd37" id="svg_94"/>
   <path d="m2777,282c-20,-22 -22,-85 -4,-99c46,-37 97,-12 97,47c0,60 -57,92 -93,52z" fill="#b4cd37" id="svg_95"/>
   <path d="m2911,30c7,-19 18,-30 30,-30c25,0 25,36 0,50c-34,17 -41,13 -30,-20z" fill="#b4cd37" id="svg_96"/>
  </g>
 </g>
</svg>