<!DOCTYPE svg PUBLIC "-//W3C//DTD SVG 1.1//EN" "http://www.w3.org/Graphics/SVG/1.1/DTD/svg11.dtd">
<!-- Uploaded to: SVG Repo, www.svgrepo.com, Transformed by: SVG Repo Mixer Tools -->
<svg fill="#000000" height="182px" width="182px" version="1.1" id="Capa_1" xmlns="http://www.w3.org/2000/svg" xmlns:xlink="http://www.w3.org/1999/xlink" viewBox="-45.59 -45.59 547.08 547.08" xml:space="preserve" transform="rotate(0)" stroke="#000000" stroke-width="0.00455896">
<g id="SVGRepo_bgCarrier" stroke-width="0" transform="translate(0,0), scale(1)">
<path transform="translate(-45.59, -45.59), scale(17.09625)" d="M16,28.597493512457923C17.715902073557444,29.113667328407796,19.490560647201907,28.103641886473643,21.258220667170292,27.810156983767634C23.472035234965805,27.442596963345704,26.388519880857892,28.370501847259764,27.8127243882709,26.636224813374845C29.267140329932737,24.865158823756573,27.946610901501163,22.123613247906782,27.806529917965715,19.83617411451014C27.702441439095207,18.13647117200558,26.854874774962816,16.52097318303713,27.08998956844306,14.834395127304465C27.41496321749124,12.5032214182282,29.904132811123624,10.55478362382563,29.421532735626435,8.251074462148708C28.982377614489213,6.154751383626824,26.864596363751158,4.452182037277018,24.797527312321193,3.8912424624697604C22.636355755370815,3.304766334155303,20.52844105661752,5.2083694074749785,18.289212518007176,5.230101860788482C16.606524553244913,5.246432903826224,15.119166412564802,4.21185472039037,13.449614101704444,4.001377712089457C11.344220347385779,3.735955074043416,9.148578776139608,3.09815158447558,7.155426127675765,3.8264884278612C5.108148465655757,4.574603606615204,2.3908305651782618,5.904249909303035,2.2844742640705213,8.081337524283866C2.150123514409283,10.831464692156832,6.5600420561232555,12.259986945691775,6.608938382540138,15.012959650364028C6.6494070824995415,17.291438107660532,1.897517860652445,18.18851248193228,2.503010863814257,20.385437610188305C3.091140256075643,22.519361922736785,6.70543982789647,21.60618811799647,8.694024740338326,22.578329671339326C9.934525079967008,23.18476187322511,10.9182106885412,24.142282129880265,11.983912431276988,25.020280366571445C13.382841159601194,26.17281386395712,14.264283762966814,28.075359244260376,16,28.597493512457923" fill="#b4cd37" strokewidth="0"/>
</g>
<g id="SVGRepo_tracerCarrier" stroke-linecap="round" stroke-linejoin="round" stroke="#f000d0" stroke-width="18.235840000000003"> <g> <path d="M432.458,330.806c8.794,0,15.926-7.132,15.926-15.926c0-8.794-7.132-15.926-15.926-15.926H331.599V155.62h100.859 c8.794,0,15.926-7.132,15.926-15.926c0-8.794-7.132-15.926-15.926-15.926H331.599V22.909c0-8.796-7.132-15.926-15.926-15.926 c-8.796,0-15.926,7.13-15.926,15.926v100.859H156.414V22.902c0-8.794-7.132-15.926-15.926-15.926 c-8.796,0-15.926,7.132-15.926,15.926v100.867H23.695c-8.794,0-15.926,7.132-15.926,15.926c0,8.794,7.132,15.926,15.926,15.926 h100.867v143.333H23.695c-8.794,0-15.926,7.132-15.926,15.926c0,8.794,7.132,15.926,15.926,15.926h100.867v100.859 c0,8.796,7.13,15.926,15.926,15.926c8.794,0,15.926-7.13,15.926-15.926V330.806h143.333v100.867c0,8.794,7.13,15.926,15.926,15.926 c8.794,0,15.926-7.132,15.926-15.926V330.806H432.458z M156.414,298.954V155.62h143.333v143.333H156.414z"/> <path d="M27.652,106.497l25.235-25.241l25.235,25.241c3.11,3.11,7.184,4.666,11.26,4.666c4.075,0,8.149-1.556,11.26-4.666 c6.222-6.213,6.222-16.299,0-22.519L75.408,58.735l25.233-25.243c6.222-6.221,6.222-16.306,0-22.519 c-6.221-6.221-16.299-6.221-22.519,0L52.887,36.214L27.652,10.973c-6.221-6.221-16.299-6.221-22.519,0 c-6.222,6.213-6.222,16.299,0,22.519l25.233,25.243L5.133,83.977c-6.222,6.221-6.222,16.307,0,22.519 c3.11,3.11,7.184,4.666,11.26,4.666C20.468,111.163,24.542,109.607,27.652,106.497z"/> <path d="M250.596,227.287l25.235-25.243c6.221-6.221,6.221-16.307,0-22.519c-6.222-6.222-16.3-6.222-22.521,0l-25.235,25.241 l-25.235-25.241c-6.221-6.222-16.299-6.222-22.519,0c-6.221,6.213-6.221,16.299,0,22.519l25.235,25.243l-25.235,25.243 c-6.221,6.221-6.221,16.307,0,22.519c3.11,3.11,7.186,4.666,11.26,4.666c4.075,0,8.149-1.556,11.26-4.666l25.235-25.241 l25.235,25.241c3.11,3.11,7.186,4.666,11.26,4.666c4.076,0,8.149-1.556,11.261-4.666c6.221-6.213,6.221-16.299,0-22.519 L250.596,227.287z"/> <path d="M228.072,117.47c32.389,0,58.735-26.346,58.735-58.735C286.807,26.346,260.461,0,228.072,0 c-32.389,0-58.735,26.346-58.735,58.735C169.337,91.123,195.684,117.47,228.072,117.47z M228.072,31.852 c14.822,0,26.883,12.061,26.883,26.883c0,14.822-12.061,26.883-26.883,26.883c-14.822,0-26.883-12.061-26.883-26.883 C201.189,43.913,213.25,31.852,228.072,31.852z"/> <path d="M396.695,338.426c-32.389,0-58.735,26.346-58.735,58.735s26.346,58.735,58.735,58.735 c32.388,0,58.735-26.346,58.735-58.735S429.083,338.426,396.695,338.426z M396.695,424.044c-14.822,0-26.883-12.061-26.883-26.883 s12.061-26.883,26.883-26.883c14.822,0,26.883,12.061,26.883,26.883S411.517,424.044,396.695,424.044z"/> </g> </g>
<g id="SVGRepo_iconCarrier"> <g> <path d="M432.458,330.806c8.794,0,15.926-7.132,15.926-15.926c0-8.794-7.132-15.926-15.926-15.926H331.599V155.62h100.859 c8.794,0,15.926-7.132,15.926-15.926c0-8.794-7.132-15.926-15.926-15.926H331.599V22.909c0-8.796-7.132-15.926-15.926-15.926 c-8.796,0-15.926,7.13-15.926,15.926v100.859H156.414V22.902c0-8.794-7.132-15.926-15.926-15.926 c-8.796,0-15.926,7.132-15.926,15.926v100.867H23.695c-8.794,0-15.926,7.132-15.926,15.926c0,8.794,7.132,15.926,15.926,15.926 h100.867v143.333H23.695c-8.794,0-15.926,7.132-15.926,15.926c0,8.794,7.132,15.926,15.926,15.926h100.867v100.859 c0,8.796,7.13,15.926,15.926,15.926c8.794,0,15.926-7.13,15.926-15.926V330.806h143.333v100.867c0,8.794,7.13,15.926,15.926,15.926 c8.794,0,15.926-7.132,15.926-15.926V330.806H432.458z M156.414,298.954V155.62h143.333v143.333H156.414z"/> <path d="M27.652,106.497l25.235-25.241l25.235,25.241c3.11,3.11,7.184,4.666,11.26,4.666c4.075,0,8.149-1.556,11.26-4.666 c6.222-6.213,6.222-16.299,0-22.519L75.408,58.735l25.233-25.243c6.222-6.221,6.222-16.306,0-22.519 c-6.221-6.221-16.299-6.221-22.519,0L52.887,36.214L27.652,10.973c-6.221-6.221-16.299-6.221-22.519,0 c-6.222,6.213-6.222,16.299,0,22.519l25.233,25.243L5.133,83.977c-6.222,6.221-6.222,16.307,0,22.519 c3.11,3.11,7.184,4.666,11.26,4.666C20.468,111.163,24.542,109.607,27.652,106.497z"/> <path d="M250.596,227.287l25.235-25.243c6.221-6.221,6.221-16.307,0-22.519c-6.222-6.222-16.3-6.222-22.521,0l-25.235,25.241 l-25.235-25.241c-6.221-6.222-16.299-6.222-22.519,0c-6.221,6.213-6.221,16.299,0,22.519l25.235,25.243l-25.235,25.243 c-6.221,6.221-6.221,16.307,0,22.519c3.11,3.11,7.186,4.666,11.26,4.666c4.075,0,8.149-1.556,11.26-4.666l25.235-25.241 l25.235,25.241c3.11,3.11,7.186,4.666,11.26,4.666c4.076,0,8.149-1.556,11.261-4.666c6.221-6.213,6.221-16.299,0-22.519 L250.596,227.287z"/> <path d="M228.072,117.47c32.389,0,58.735-26.346,58.735-58.735C286.807,26.346,260.461,0,228.072,0 c-32.389,0-58.735,26.346-58.735,58.735C169.337,91.123,195.684,117.47,228.072,117.47z M228.072,31.852 c14.822,0,26.883,12.061,26.883,26.883c0,14.822-12.061,26.883-26.883,26.883c-14.822,0-26.883-12.061-26.883-26.883 C201.189,43.913,213.25,31.852,228.072,31.852z"/> <path d="M396.695,338.426c-32.389,0-58.735,26.346-58.735,58.735s26.346,58.735,58.735,58.735 c32.388,0,58.735-26.346,58.735-58.735S429.083,338.426,396.695,338.426z M396.695,424.044c-14.822,0-26.883-12.061-26.883-26.883 s12.061-26.883,26.883-26.883c14.822,0,26.883,12.061,26.883,26.883S411.517,424.044,396.695,424.044z"/> </g> </g>
</svg>